<svg id="TYPE_F" data-name="TYPE F" xmlns="http://www.w3.org/2000/svg" viewBox="0 0 24.83 23.66"><defs><style>.cls-1{fill:#231815;}</style></defs><title>i_line</title><path class="cls-1" d="M25.34,10.56C25.34,5,19.77.49,12.93.49S.52,5,.52,10.56c0,5,4.42,9.15,10.38,9.94.4.09,1,.27,1.09.61a2.55,2.55,0,0,1,0,1.12l-.17,1.07c-.06.32-.25,1.23,1.08.67s7.15-4.2,9.75-7.21h0A9,9,0,0,0,25.34,10.56ZM8.06,13.87H5.61A.65.65,0,0,1,5,13.21H5V8.29a.65.65,0,1,1,1.26,0v4.28H8.07a.65.65,0,0,1,0,1.31Zm2.55-.65a.65.65,0,1,1-1.31,0h0V8.29a.65.65,0,1,1,1.31,0h0Zm5.93,0a.65.65,0,0,1-1.17.39l-2.52-3.45v3.05a.65.65,0,1,1-1.31,0h0V8.29A.65.65,0,0,1,12,7.66a.66.66,0,0,1,.21,0,.65.65,0,0,1,.52.26l2.52,3.45V8.29a.65.65,0,1,1,1.31,0h0Zm4-3.12a.65.65,0,0,1,0,1.31H18.69v1.16H20.5a.65.65,0,0,1,0,1.31H18.09a.65.65,0,0,1-.65-.65h0V10.76h0V8.29a.65.65,0,0,1,.65-.65h2.47a.65.65,0,1,1,0,1.31H18.69V10.1Z" transform="translate(-0.52 -0.49)"/></svg>